#!OML:ASF \\sashay\E\basketball\basketball\Project 1\Capture day 1\Session 1\Subject.ASF
:FULLY-SPECIFIED
:DEGREES
197
root -5.05707 14.2813 1.40907 -171.318 -54.7859 185.771
lowerback 27.1339 2.64354 1.05968
upperback 9.3609 2.27317 -1.45751
thorax -4.45596 0.622952 -2.8409
lowerneck -7.06474 3.33786 -14.9452
upperneck -18.5581 5.6654 11.2615
head -5.14514 2.82644 6.00134
rclavicle 1.07344e-014 -1.55052e-014
rhumerus -7.63251 -23.653 -43.8209
rradius 115.89
rwrist -13.2682
rhand -39.5077 53.5826
rfingers 7.12502
rthumb -12.4932 23.976
lclavicle 1.07344e-014 -1.55052e-014
lhumerus -18.0431 26.5692 38.6518
lradius 99.1868
lwrist 18.7088
lhand -36.2082 25.6849
lfingers 7.12502
lthumb -9.31066 55.4593
rfemur -17.562 -25.3713 11.7383
rtibia 54.58
rfoot -28.1557 -16.0237
rtoes -53.9007
lfemur -67.0062 33.4896 -20.7482
ltibia 69.7245
lfoot -10.6421 -0.21649
ltoes -23.9068
198
root -5.61701 14.3004 1.36717 -171.811 -55.1701 186.527
lowerback 26.516 2.79962 0.957295
upperback 9.02983 2.53518 -1.3763
thorax -4.52333 0.77603 -2.75635
lowerneck -6.05985 3.26106 -15.5118
upperneck -18.4638 5.66265 12.5437
head -5.31043 2.78909 6.51267
rclavicle 9.26337e-014 -8.26944e-014
rhumerus -8.38778 -22.9092 -44.3586
rradius 114.797
rwrist -12.6672
rhand -38.8439 53.4429
rfingers 7.12502
rthumb -11.8531 23.7983
lclavicle 9.26337e-014 -8.26944e-014
lhumerus -17.9803 26.3853 37.9202
lradius 99.1712
lwrist 17.7842
lhand -36.2421 25.7486
lfingers 7.12502
lthumb -9.34339 55.5216
rfemur -13.6255 -25.3674 9.98228
rtibia 50.9031
rfoot -26.2829 -14.7835
rtoes -54.7894
lfemur -67.2956 32.8688 -19.9632
ltibia 64.1604
lfoot -8.41055 0.121949
ltoes -26.9856
199
root -6.1976 14.3281 1.32092 -172.226 -55.3956 186.96
lowerback 25.8529 3.02576 0.5669
upperback 8.81682 2.79554 -1.31218
thorax -4.45144 0.920191 -2.51813
lowerneck -6.83004 2.75467 -14.4385
upperneck -16.844 4.99724 12.6287
head -4.54744 2.43416 6.35622
rclavicle -2.90226e-014 -4.53229e-014
rhumerus -9.27904 -22.2584 -44.8567
rradius 113.74
rwrist -12.3454
rhand -38.7185 53.4683
rfingers 7.12502
rthumb -11.7322 23.8168
lclavicle -2.90226e-014 -4.53229e-014
lhumerus -17.9039 26.2664 37.324
lradius 99.1316
lwrist 17.0474
lhand -36.5638 25.6081
lfingers 7.12502
lthumb -9.65383 55.3669
rfemur -9.05875 -25.0299 7.95268
rtibia 46.4724
rfoot -23.0682 -14.6974
rtoes -56.1191
lfemur -66.8572 32.2688 -19.0102
ltibia 58.8958
lfoot -5.64879 0.358228
ltoes -27.6176
200
root -6.7827 14.3703 1.26947 -172.483 -55.6431 187.136
lowerback 25.2304 3.31494 0.165179
upperback 8.63828 3.11547 -1.43912
thorax -4.34772 1.09321 -2.49588
lowerneck -6.58459 2.37689 -14.3521
upperneck -16.3427 4.59201 13.9245
head -4.37623 2.17313 6.7752
rclavicle 2.78299e-014 6.59965e-014
rhumerus -10.7047 -22.128 -45.2818
rradius 112.706
rwrist -12.1716
rhand -38.5696 54.0401
rfingers 7.12502
rthumb -11.5886 24.3805
lclavicle 2.78299e-014 6.59965e-014
lhumerus -17.1292 25.8004 36.7479
lradius 98.8166
lwrist 16.4374
lhand -36.9869 25.1858
lfingers 7.12502
lthumb -10.062 54.9252
rfemur -4.3533 -23.4107 5.94638
rtibia 41.6259
rfoot -21.0304 -11.1836
rtoes -55.9794
lfemur -65.8013 31.471 -17.993
ltibia 53.7888
lfoot -3.14521 0.428384
ltoes -30.2678
201
root -7.37969 14.4118 1.22108 -172.94 -56.3298 187.32
lowerback 24.7813 3.39362 -0.0454186
upperback 8.49531 3.21051 -1.50545
thorax -4.29024 1.15522 -2.45826
lowerneck -6.12709 2.08423 -14.3543
upperneck -15.9475 4.26616 15.0862
head -4.28321 1.95713 7.16294
rclavicle -7.35503e-014 1.31198e-014
rhumerus -12.1489 -22.2054 -45.5708
rradius 111.467
rwrist -11.991
rhand -37.3684 54.2398
rfingers 7.12502
rthumb -10.4301 24.5185
lclavicle -7.35503e-014 1.31198e-014
lhumerus -16.4386 25.2027 36.1404
lradius 98.4615
lwrist 16.0476
lhand -37.1434 24.7605
lfingers 7.12502
lthumb -10.2129 54.4926
rfemur 0.793205 -21.4949 4.31715
rtibia 36.291
rfoot -16.9353 -9.79044
rtoes -56.6741
lfemur -64.3904 30.223 -16.9424
ltibia 49.344
lfoot -2.06947 0.644534
ltoes -35.8497
202
root -7.98006 14.442 1.17203 -173.456 -56.793 187.717
lowerback 24.2006 3.57338 -0.366014
upperback 8.2495 3.43671 -1.475
thorax -4.28807 1.2844 -2.28479
lowerneck -5.04582 2.06983 -14.132
upperneck -15.8529 4.2441 15.9682
head -4.42768 1.86457 7.41016
rclavicle -1.98785e-015 7.95139e-015
rhumerus -13.0603 -22.7157 -46.0908
rradius 109.571
rwrist -11.7325
rhand -36.0042 54.3144
rfingers 7.12502
rthumb -9.11387 24.5314
lclavicle -1.98785e-015 7.95139e-015
lhumerus -16.0637 24.4131 35.5699
lradius 98.1691
lwrist 15.9253
lhand -37.2874 24.1085
lfingers 7.12502
lthumb -10.3519 53.8337
rfemur 5.73878 -18.7233 3.38531
rtibia 30.529
rfoot -10.8783 -9.45822
rtoes -57.2626
lfemur -63.2268 29.4448 -16.1664
ltibia 45.8562
lfoot -1.88649 0.112817
ltoes -41.4827
